<?xml version="1.0" standalone="no"?>
<!DOCTYPE svg PUBLIC "-//W3C//DTD SVG 20010904//EN"
 "http://www.w3.org/TR/2001/REC-SVG-20010904/DTD/svg10.dtd">
<svg version="1.0" xmlns="http://www.w3.org/2000/svg"
 width="600.000000pt" height="600.000000pt" viewBox="0 0 600.000000 600.000000"
 preserveAspectRatio="xMidYMid meet">
<metadata>
Created by potrace 1.14, written by Peter Selinger 2001-2017
</metadata>
<g transform="translate(0.000000,600.000000) scale(0.100000,-0.100000)"
fill="#000000" stroke="none">
<path d="M2848 4322 c-23 -20 -73 -70 -112 -111 -39 -41 -198 -201 -354 -356
-222 -223 -281 -286 -275 -301 3 -9 24 -35 45 -57 43 -45 41 -57 -17 -101 -19
-15 -35 -34 -35 -43 0 -9 81 -98 181 -198 99 -100 185 -188 190 -196 5 -8 9
-12 9 -9 0 3 84 -78 188 -181 103 -102 197 -191 210 -198 21 -11 28 -8 67 23
24 20 49 36 57 36 7 0 28 -14 46 -31 63 -59 41 -75 460 346 280 281 382 390
382 407 0 14 -14 35 -35 52 -19 16 -35 37 -35 45 0 9 16 33 36 55 23 26 34 46
32 62 -2 15 -129 150 -373 395 -203 204 -378 377 -389 384 -21 15 -55 5 -90
-27 -26 -24 -41 -23 -79 6 -54 39 -64 39 -109 -2z m177 -404 c4 4 3 -3 -3 -14
-12 -22 -7 -34 12 -34 6 0 4 5 -4 10 -11 7 -11 10 -2 10 7 0 23 -10 35 -21
l22 -21 -22 6 c-12 4 -24 2 -28 -3 -3 -7 0 -8 9 -5 9 3 16 1 16 -6 0 -6 4 -9
9 -5 5 3 13 0 17 -6 4 -8 3 -9 -4 -5 -15 9 -15 1 -2 -24 7 -13 18 -17 35 -14
14 2 25 1 25 -3 0 -5 12 -9 26 -10 15 0 29 -5 33 -11 3 -5 11 -11 18 -13 17
-6 148 -124 230 -207 77 -79 80 -89 34 -128 -15 -12 -38 -33 -54 -45 -15 -13
-76 -73 -135 -132 -124 -126 -210 -199 -223 -191 -5 3 -8 0 -7 -7 2 -6 -3 -14
-11 -17 -8 -2 -11 0 -8 5 3 5 0 10 -7 10 -8 0 -12 -6 -10 -12 3 -6 -2 -12 -10
-12 -8 0 -13 4 -11 8 3 4 -2 10 -11 13 -8 3 -13 2 -10 -3 3 -5 0 -11 -7 -14
-18 -7 -57 10 -63 28 -3 8 -10 12 -15 9 -5 -3 -9 2 -9 11 0 9 -4 13 -10 10 -5
-3 -10 -2 -10 3 0 5 -10 13 -22 19 -44 20 -374 339 -373 361 0 12 182 202 188
196 1 -2 11 10 22 27 11 16 27 31 36 34 9 3 40 28 68 55 29 28 57 50 62 50 6
0 7 5 3 12 -5 8 -2 9 12 4 10 -4 15 -4 12 0 -9 8 36 53 82 82 30 19 37 20 46
7 6 -8 15 -11 19 -7z m85 -112 c0 -3 -4 -8 -10 -11 -5 -3 -10 -1 -10 4 0 6 5
11 10 11 6 0 10 -2 10 -4z"/>
<path d="M3026 3822 c-2 -4 0 -14 6 -22 8 -12 9 -12 4 3 -3 9 -1 17 4 17 9 0
14 -14 11 -32 0 -5 4 -8 9 -8 11 0 13 11 4 34 -6 17 -29 22 -38 8z"/>
<path d="M2984 3802 c4 -3 14 -7 22 -8 9 -1 13 0 10 4 -4 3 -14 7 -22 8 -9 1
-13 0 -10 -4z"/>
<path d="M2809 3704 c-9 -11 -12 -41 -7 -84 3 -23 8 -25 61 -30 32 -3 61 -11
66 -18 4 -6 6 -95 5 -196 -2 -170 -1 -186 17 -205 15 -16 29 -20 60 -17 23 2
46 9 52 15 7 7 12 69 13 170 1 87 5 164 9 170 3 7 2 18 -4 25 -16 19 6 35 50
38 59 4 75 21 74 79 -1 44 -5 53 -24 60 -33 13 -361 6 -372 -7z"/>
<path d="M3207 2334 c-10 -11 -9 -21 6 -36 32 -33 77 -111 77 -134 0 -14 -20
-53 -44 -88 -49 -67 -49 -90 0 -84 37 5 55 16 77 51 18 28 67 39 67 14 0 -7
12 -25 28 -39 24 -23 50 -29 95 -20 11 3 -9 37 -55 98 -21 28 -38 57 -38 65 0
9 20 44 45 79 57 81 58 100 8 95 -25 -2 -43 -11 -53 -25 -31 -46 -59 -70 -74
-64 -9 3 -16 11 -16 18 -1 24 -46 65 -80 71 -19 3 -39 3 -43 -1z"/>
<path d="M2483 2323 c-7 -2 -13 -15 -13 -28 0 -19 8 -25 45 -34 39 -10 45 -15
46 -39 1 -15 2 -65 3 -112 4 -130 -2 -119 61 -111 7 1 11 44 10 118 -1 102 2
120 18 136 10 10 24 16 31 14 23 -9 39 9 32 36 -6 26 -6 26 -114 26 -59 -1
-113 -3 -119 -6z"/>
<path d="M2848 2313 c-6 -27 -3 -301 3 -308 10 -10 45 -14 57 -6 7 4 14 23 15
43 3 38 22 69 41 67 38 -5 68 4 92 26 51 48 32 161 -32 185 -14 6 -58 10 -98
10 -62 0 -74 -3 -78 -17z m146 -69 c21 -20 20 -27 -3 -48 -36 -32 -83 3 -61
45 13 23 43 25 64 3z"/>
</g>
</svg>
